<svg width="50" height="50" xmlns="http://www.w3.org/2000/svg" xmlns:xlink="http://www.w3.org/1999/xlink" version="1.1">
 <defs>
  <linearGradient y2="0.02593" x2="0.49994" y1="1.02618" x1="0.49994" id="linear0">
   <stop stop-color="rgb(41.960784%,10.196078%,10.588235%)" offset="0"/>
   <stop stop-color="rgb(55.294118%,11.764706%,12.156863%)" offset="0.52"/>
   <stop stop-color="rgb(78.039216%,14.117647%,13.72549%)" offset="1"/>
  </linearGradient>
  <linearGradient y2="0.02593" x2="0.50015" y1="1.02618" x1="0.50015" id="linear1">
   <stop stop-color="rgb(41.960784%,10.196078%,10.588235%)" offset="0"/>
   <stop stop-color="rgb(55.294118%,11.764706%,12.156863%)" offset="0.52"/>
   <stop stop-color="rgb(78.039216%,14.117647%,13.72549%)" offset="1"/>
  </linearGradient>
  <linearGradient y2="0.02593" x2="0.50007" y1="1.02618" x1="0.50007" id="linear2">
   <stop stop-color="rgb(41.960784%,10.196078%,10.588235%)" offset="0"/>
   <stop stop-color="rgb(55.294118%,11.764706%,12.156863%)" offset="0.52"/>
   <stop stop-color="rgb(78.039216%,14.117647%,13.72549%)" offset="1"/>
  </linearGradient>
  <linearGradient y2="0.02593" x2="0.50015" y1="1.02618" x1="0.50015" id="linear3">
   <stop stop-color="rgb(41.960784%,10.196078%,10.588235%)" offset="0"/>
   <stop stop-color="rgb(55.294118%,11.764706%,12.156863%)" offset="0.52"/>
   <stop stop-color="rgb(78.039216%,14.117647%,13.72549%)" offset="1"/>
  </linearGradient>
  <linearGradient y2="0.00994" x2="0.50024" y1="1.00967" x1="0.50024" id="linear4">
   <stop stop-color="rgb(41.960784%,10.196078%,10.588235%)" offset="0"/>
   <stop stop-color="rgb(55.294118%,11.764706%,12.156863%)" offset="0.52"/>
   <stop stop-color="rgb(78.039216%,14.117647%,13.72549%)" offset="1"/>
  </linearGradient>
  <linearGradient y2="0.00994" x2="0.50017" y1="1.00967" x1="0.50017" id="linear5">
   <stop stop-color="rgb(41.960784%,10.196078%,10.588235%)" offset="0"/>
   <stop stop-color="rgb(55.294118%,11.764706%,12.156863%)" offset="0.52"/>
   <stop stop-color="rgb(78.039216%,14.117647%,13.72549%)" offset="1"/>
  </linearGradient>
  <linearGradient y2="0.00994" x2="0.50004" y1="1.00967" x1="0.50004" id="linear6">
   <stop stop-color="rgb(41.960784%,10.196078%,10.588235%)" offset="0"/>
   <stop stop-color="rgb(55.294118%,11.764706%,12.156863%)" offset="0.52"/>
   <stop stop-color="rgb(78.039216%,14.117647%,13.72549%)" offset="1"/>
  </linearGradient>
  <linearGradient y2="-0.0062" x2="0.49994" y1="0.99404" x1="0.49994" id="linear7">
   <stop stop-color="rgb(41.960784%,10.196078%,10.588235%)" offset="0"/>
   <stop stop-color="rgb(55.294118%,11.764706%,12.156863%)" offset="0.52"/>
   <stop stop-color="rgb(78.039216%,14.117647%,13.72549%)" offset="1"/>
  </linearGradient>
  <linearGradient y2="-0.0062" x2="0.50015" y1="0.99405" x1="0.50015" id="linear8">
   <stop stop-color="rgb(41.960784%,10.196078%,10.588235%)" offset="0"/>
   <stop stop-color="rgb(55.294118%,11.764706%,12.156863%)" offset="0.52"/>
   <stop stop-color="rgb(78.039216%,14.117647%,13.72549%)" offset="1"/>
  </linearGradient>
  <linearGradient y2="-0.0062" x2="0.50008" y1="0.99401" x1="0.50008" id="linear9">
   <stop stop-color="rgb(41.960784%,10.196078%,10.588235%)" offset="0"/>
   <stop stop-color="rgb(55.294118%,11.764706%,12.156863%)" offset="0.52"/>
   <stop stop-color="rgb(78.039216%,14.117647%,13.72549%)" offset="1"/>
  </linearGradient>
  <linearGradient y2="-0.0062" x2="0.50015" y1="0.99405" x1="0.50015" id="linear10">
   <stop stop-color="rgb(41.960784%,10.196078%,10.588235%)" offset="0"/>
   <stop stop-color="rgb(55.294118%,11.764706%,12.156863%)" offset="0.52"/>
   <stop stop-color="rgb(78.039216%,14.117647%,13.72549%)" offset="1"/>
  </linearGradient>
  <linearGradient y2="0.00015" x2="0.50023" y1="1.0004" x1="0.50023" id="linear11">
   <stop stop-color="rgb(41.960784%,10.196078%,10.588235%)" offset="0"/>
   <stop stop-color="rgb(55.294118%,11.764706%,12.156863%)" offset="0.52"/>
   <stop stop-color="rgb(78.039216%,14.117647%,13.72549%)" offset="1"/>
  </linearGradient>
  <linearGradient y2="0.00016" x2="0.50017" y1="1.0004" x1="0.50017" id="linear12">
   <stop stop-color="rgb(41.960784%,10.196078%,10.588235%)" offset="0"/>
   <stop stop-color="rgb(55.294118%,11.764706%,12.156863%)" offset="0.52"/>
   <stop stop-color="rgb(78.039216%,14.117647%,13.72549%)" offset="1"/>
  </linearGradient>
  <linearGradient y2="0.00016" x2="0.50004" y1="1.0004" x1="0.50004" id="linear13">
   <stop stop-color="rgb(41.960784%,10.196078%,10.588235%)" offset="0"/>
   <stop stop-color="rgb(55.294118%,11.764706%,12.156863%)" offset="0.52"/>
   <stop stop-color="rgb(78.039216%,14.117647%,13.72549%)" offset="1"/>
  </linearGradient>
  <linearGradient y2="0.00139" x2="0.50023" y1="1.00448" x1="0.50023" id="linear14">
   <stop stop-color="rgb(41.960784%,10.196078%,10.588235%)" offset="0"/>
   <stop stop-color="rgb(55.294118%,11.764706%,12.156863%)" offset="0.52"/>
   <stop stop-color="rgb(78.039216%,14.117647%,13.72549%)" offset="1"/>
  </linearGradient>
  <linearGradient y2="0.00139" x2="0.50017" y1="1.00449" x1="0.50017" id="linear15">
   <stop stop-color="rgb(41.960784%,10.196078%,10.588235%)" offset="0"/>
   <stop stop-color="rgb(55.294118%,11.764706%,12.156863%)" offset="0.52"/>
   <stop stop-color="rgb(78.039216%,14.117647%,13.72549%)" offset="1"/>
  </linearGradient>
  <linearGradient y2="0.00139" x2="0.50004" y1="1.00449" x1="0.50004" id="linear16">
   <stop stop-color="rgb(41.960784%,10.196078%,10.588235%)" offset="0"/>
   <stop stop-color="rgb(55.294118%,11.764706%,12.156863%)" offset="0.52"/>
   <stop stop-color="rgb(78.039216%,14.117647%,13.72549%)" offset="1"/>
  </linearGradient>
 </defs>
 <g>
  <title>Layer 1</title>
  <g stroke="null" id="surface2">
   <use transform="matrix(1.0555 0 0 1.22954 0.0383002 -0.0337765)" stroke="null" x="-6.66664" y="-7.3333" id="svg_1" mask="url(#mask0)" xlink:href="#surface10"/>
   <path stroke="null" id="svg_2" fill="url(#linear0)" fill-rule="evenodd" d="m-0.69008,10.33414l6.44846,0c0.77101,0.0096 1.39772,0.73484 1.41009,1.64258l0,6.00364c-0.01237,0.90294 -0.63496,1.63298 -1.41009,1.64258l-6.44846,0l0,-9.28881zm0,0"/>
   <path stroke="null" id="svg_3" fill="rgb(83.137255%,29.019608%,22.745098%)" fill-rule="evenodd" d="m-0.69008,11.01135l6.10624,0c0.35046,-0.00481 0.69267,0.15369 0.9483,0.44186c0.2515,0.28818 0.39581,0.68202 0.39993,1.09026l0,0.82611c-0.00824,-0.85972 -0.61021,-1.54654 -1.34823,-1.54174l-6.10624,0.0096l0,-0.82609zm0,0"/>
   <path stroke="null" id="svg_4" fill="url(#linear1)" fill-rule="nonzero" d="m9.27947,10.33414l13.56071,0c0.78338,0 1.41009,0.73484 1.41009,1.64258l0,6.00364c0,0.90775 -0.6267,1.64258 -1.41009,1.64258l-13.56071,0c-0.77514,0 -1.41009,-0.73484 -1.41009,-1.64258l0,-6.00364c0,-0.90775 0.63495,-1.64258 1.41009,-1.64258zm0,0"/>
   <path stroke="null" id="svg_5" fill="rgb(83.137255%,29.019608%,22.745098%)" fill-rule="evenodd" d="m9.77423,11.01135l12.76084,0c0.72566,0.0096 1.31525,0.68681 1.31938,1.53212l0,0.82611c-0.00413,-0.85012 -0.59372,-1.53213 -1.31938,-1.54174l-12.76084,0.0096c-0.72566,0 -1.31526,0.68682 -1.31938,1.53213l0,-0.8165c0.00412,-0.85011 0.58959,-1.53693 1.31938,-1.54173zm0,0"/>
   <path stroke="null" id="svg_6" fill="url(#linear2)" fill-rule="evenodd" d="m26.36951,10.33414l13.56072,0c0.37107,0 0.72977,0.1729 0.99778,0.47548c0.26388,0.31219 0.41231,0.73485 0.41231,1.16711l0,6.00364c0,0.43705 -0.14844,0.85011 -0.41231,1.1671c-0.268,0.30259 -0.6267,0.47549 -1.0019,0.47549l-13.55659,0c-0.3752,0 -0.72977,-0.1729 -1.0019,-0.48028c-0.25975,-0.30739 -0.40818,-0.72525 -0.40818,-1.1623l0,-6.00364c0,-0.43226 0.14844,-0.85491 0.41231,-1.16711c0.26388,-0.30258 0.62258,-0.47548 0.99778,-0.47548zm0,0"/>
   <path stroke="null" id="svg_7" fill="rgb(83.137255%,29.019608%,22.745098%)" fill-rule="evenodd" d="m26.85603,11.01135l12.76909,0c0.35046,-0.00481 0.68855,0.15369 0.93592,0.44186c0.24739,0.29298 0.38345,0.68202 0.37933,1.09026l0,0.82611c0.00413,-0.40826 -0.13194,-0.80209 -0.37933,-1.09026c-0.24738,-0.28818 -0.58547,-0.45148 -0.93592,-0.45148l-12.76497,0.0096c-0.35047,-0.0096 -0.68856,0.15369 -0.93593,0.44187c-0.2515,0.28817 -0.38757,0.682 -0.37933,1.09026l0,-0.8165c-0.00824,-0.41304 0.12782,-0.80689 0.3752,-1.09506c0.2515,-0.29298 0.58959,-0.45148 0.94006,-0.44667l-0.00413,0zm0,0"/>
   <path stroke="null" id="svg_8" fill="url(#linear3)" fill-rule="evenodd" d="m43.54614,10.33414l6.47731,0l0,9.28881l-6.47731,0c-0.77514,-0.0096 -1.40184,-0.73964 -1.41009,-1.64258l0,-6.00364c0.01237,-0.90775 0.63495,-1.63298 1.41009,-1.64258zm0,0"/>
   <path stroke="null" id="svg_9" fill="rgb(83.137255%,29.019608%,22.745098%)" fill-rule="evenodd" d="m44.06976,11.01135l5.95369,0l0,0.82609l-5.95369,0c-0.7339,-0.0096 -1.33586,0.67721 -1.34411,1.53213l0,-0.8165c0.00824,-0.85972 0.61021,-1.54653 1.34411,-1.54173zm0,0"/>
   <path stroke="null" id="svg_10" fill="url(#linear4)" fill-rule="nonzero" d="m0.72001,20.41063l13.58958,0c0.3752,0 0.7339,0.1729 0.99778,0.48028c0.268,0.31219 0.41231,0.73004 0.41231,1.16231l0,5.99882c0,0.91256 -0.6267,1.6522 -1.41009,1.6522l-13.58958,0c-0.77926,0 -1.41009,-0.73964 -1.41009,-1.6522l0,-5.99882c0,-0.90776 0.63083,-1.6426 1.41009,-1.6426zm0,0"/>
   <path stroke="null" id="svg_11" fill="rgb(83.137255%,29.019608%,22.745098%)" fill-rule="evenodd" d="m1.24363,21.08784l12.73198,0c0.72978,0.00481 1.32763,0.68681 1.34824,1.53693l0,0.81649c-0.00824,-0.85491 -0.61433,-1.54173 -1.34824,-1.53212l-12.73198,0c-0.7339,-0.0096 -1.33999,0.67721 -1.35236,1.53693l0,-0.8213c0.02887,-0.85012 0.62259,-1.53212 1.35236,-1.53693zm0,0"/>
   <path stroke="null" id="svg_12" fill="url(#linear5)" fill-rule="nonzero" d="m17.83891,20.41063l13.56072,0c0.3752,0 0.7339,0.1729 0.99778,0.48028c0.268,0.30739 0.41643,0.73004 0.4123,1.16231l0,5.99882c0,0.91256 -0.6267,1.6522 -1.41008,1.6522l-13.56072,0c-0.77513,0 -1.41009,-0.73964 -1.41009,-1.6522l0,-5.99882c0,-0.90776 0.63496,-1.6426 1.41421,-1.6426l-0.00413,0zm0,0"/>
   <path stroke="null" id="svg_13" fill="rgb(83.137255%,29.019608%,22.745098%)" fill-rule="evenodd" d="m18.33368,21.08784l12.72786,0c0.72978,0.00481 1.31526,0.69162 1.3235,1.53693l0,0.81649c0,-0.39864 -0.14018,-0.79248 -0.38757,-1.08545c-0.24738,-0.28818 -0.58135,-0.45148 -0.93181,-0.44187l-12.73198,0c-0.35046,-0.0048 -0.68855,0.15369 -0.94005,0.44187c-0.24739,0.29298 -0.38757,0.68681 -0.37933,1.08545l0,-0.81649c0.00413,-0.84531 0.59372,-1.53212 1.31938,-1.53693zm0,0"/>
   <path stroke="null" id="svg_14" fill="url(#linear6)" fill-rule="nonzero" d="m35.02379,20.41063l13.58958,0c0.77926,0 1.41009,0.73484 1.41009,1.6426l0,5.99882c0,0.91256 -0.63083,1.6522 -1.41421,1.6522l-13.58545,0c-0.78338,0 -1.4142,-0.73964 -1.4142,-1.6522l0.00412,-5.99882c-0.00412,-0.43227 0.14431,-0.85493 0.40818,-1.16231c0.268,-0.30739 0.6267,-0.48028 1.0019,-0.48028zm0,0"/>
   <path stroke="null" id="svg_15" fill="rgb(83.137255%,29.019608%,22.745098%)" fill-rule="evenodd" d="m35.51443,21.08784l12.75672,0c0.7339,0.00481 1.33175,0.68681 1.35236,1.53693l0,0.81649c-0.01237,-0.85491 -0.61433,-1.54173 -1.35236,-1.53212l-12.76084,0c-0.35046,-0.00481 -0.68443,0.15849 -0.93181,0.44667c-0.25563,0.29298 -0.38757,0.68681 -0.38757,1.08545l0,-0.81649c0.00412,-0.84531 0.59372,-1.53212 1.31938,-1.53693l0.00412,0zm0,0"/>
   <path stroke="null" id="svg_16" fill="url(#linear7)" fill-rule="evenodd" d="m-0.69008,30.48713l6.44846,0c0.77101,0.0096 1.39772,0.73964 1.41009,1.6426l0,6.00363c0,0.43707 -0.14844,0.85491 -0.41231,1.16711c-0.26388,0.30739 -0.6267,0.48028 -0.99778,0.47549l-6.44846,0l0,-9.28882zm0,0"/>
   <path stroke="null" id="svg_17" fill="rgb(83.137255%,29.019608%,22.745098%)" fill-rule="evenodd" d="m-0.69008,31.16914l6.10624,0c0.74214,0 1.34412,0.70122 1.34823,1.56575l0,0.78286c-0.02061,-0.85011 -0.61845,-1.52731 -1.34823,-1.53212l-6.10624,0l0,-0.81649zm0,0"/>
   <path stroke="null" id="svg_18" fill="url(#linear8)" fill-rule="evenodd" d="m9.27947,30.48713l13.56071,0c0.77926,0.0096 1.40184,0.73964 1.41009,1.6426l0,6.00363c0,0.43707 -0.14844,0.85491 -0.40818,1.16711c-0.268,0.30739 -0.6267,0.47549 -1.0019,0.47549l-13.56071,0c-0.77514,0 -1.41009,-0.73485 -1.41009,-1.6426l0,-6.00363c0.01237,-0.90295 0.63907,-1.63299 1.41009,-1.6426zm0,0"/>
   <path stroke="null" id="svg_19" fill="rgb(83.137255%,29.019608%,22.745098%)" fill-rule="evenodd" d="m9.77423,31.16914l12.76084,0c0.72978,0.02401 1.31113,0.71563 1.31938,1.56575l0,0.78286c-0.0165,-0.8405 -0.59785,-1.5129 -1.31938,-1.53212l-12.76084,0c-0.72154,0.01441 -1.30289,0.69162 -1.31938,1.53212l0,-0.78286c0.00412,-0.85012 0.58959,-1.54654 1.31938,-1.56575zm0,0"/>
   <path stroke="null" id="svg_20" fill="url(#linear9)" fill-rule="evenodd" d="m26.36951,30.48713l13.56072,0c0.37107,0 0.72977,0.17291 0.99778,0.4803c0.26388,0.30739 0.41231,0.73004 0.41231,1.1623l0,6.00844c0.00412,0.43707 -0.14431,0.85491 -0.40818,1.16711c-0.26388,0.30739 -0.6267,0.48028 -1.0019,0.47068l-13.56072,0c-0.3752,0.0096 -0.73803,-0.1633 -1.00602,-0.47068c-0.26388,-0.31219 -0.41231,-0.73485 -0.40407,-1.17192l0,-6.00363c0,-0.43226 0.14844,-0.85491 0.40818,-1.1623c0.268,-0.30739 0.6267,-0.4803 1.0019,-0.4803zm0,0"/>
   <path stroke="null" id="svg_21" fill="rgb(83.137255%,29.019608%,22.745098%)" fill-rule="evenodd" d="m26.85603,31.16914l12.76909,0c0.7339,0.0096 1.32349,0.70603 1.31525,1.56575l0,0.78286c-0.00413,-0.8405 -0.58959,-1.52731 -1.31525,-1.53212l-12.76909,0c-0.72566,0.0096 -1.31113,0.69162 -1.31525,1.53693l0,-0.78767c-0.00825,-0.85493 0.58135,-1.55615 1.31938,-1.56575l-0.00413,0zm0,0"/>
   <path stroke="null" id="svg_22" fill="url(#linear10)" fill-rule="evenodd" d="m43.54614,30.48713l6.47731,0l0,9.28882l-6.47731,0c-0.37107,0 -0.72978,-0.1681 -0.99778,-0.47549c-0.26388,-0.31219 -0.41231,-0.73004 -0.41231,-1.16711l0,-6.00363c0.01237,-0.90295 0.63495,-1.63299 1.41009,-1.6426zm0,0"/>
   <path stroke="null" id="svg_23" fill="rgb(83.137255%,29.019608%,22.745098%)" fill-rule="evenodd" d="m44.06976,31.16914l5.95369,0l0,0.81649l-5.95369,0c-0.72566,0.01441 -1.31938,0.69162 -1.34411,1.53693l0,-0.78767c0.00824,-0.86453 0.60608,-1.56096 1.34411,-1.56575zm0,0"/>
   <path stroke="null" id="svg_24" fill="url(#linear11)" fill-rule="evenodd" d="m0.72001,40.8518l13.58958,0c0.37933,0 0.73803,0.1681 1.0019,0.48028c0.268,0.30739 0.4123,0.73004 0.40818,1.16711l0,5.99883c-0.00413,0.90294 -0.63495,1.63298 -1.41009,1.6426l-13.58958,0c-0.77513,-0.00962 -1.40183,-0.73966 -1.41009,-1.6426l0,-6.00363c0,-0.90776 0.63083,-1.6426 1.41009,-1.6426zm0,0"/>
   <path stroke="null" id="svg_25" fill="rgb(83.137255%,29.019608%,22.745098%)" fill-rule="evenodd" d="m1.24363,41.49539l12.73198,0c0.74215,0.0048 1.34412,0.70122 1.34824,1.56574l0,0.82611c-0.00824,-0.86453 -0.60609,-1.56094 -1.34824,-1.57056l-12.73198,0c-0.74214,0.00481 -1.34411,0.70603 -1.35236,1.57056l0,-0.82611c0.00825,-0.86452 0.61022,-1.56094 1.35236,-1.56574zm0,0"/>
   <path stroke="null" id="svg_26" fill="url(#linear12)" fill-rule="evenodd" d="m17.84304,40.8518l13.55659,0c0.3752,-0.00481 0.7339,0.1681 1.0019,0.48028c0.26388,0.30739 0.4123,0.73004 0.40817,1.16711l0,5.99883c-0.00824,0.90294 -0.63495,1.63298 -1.41008,1.6426l-13.55659,0c-0.77514,-0.00962 -1.40184,-0.73966 -1.41421,-1.6426l0,-6.00363c0.00413,-0.90776 0.63496,-1.6426 1.41421,-1.6426zm0,0"/>
   <path stroke="null" id="svg_27" fill="rgb(83.137255%,29.019608%,22.745098%)" fill-rule="evenodd" d="m18.33368,41.49539l12.72786,0c0.73803,0.0096 1.32763,0.71563 1.3235,1.57535l0,0.81649c0.00413,-0.85972 -0.58548,-1.56094 -1.31938,-1.57056l-12.73198,0c-0.73803,0.00962 -1.32762,0.71084 -1.31938,1.57056l0,-0.82611c-0.00824,-0.85491 0.58548,-1.55614 1.31938,-1.56574zm0,0"/>
   <path stroke="null" id="svg_28" fill="url(#linear13)" fill-rule="evenodd" d="m35.02379,40.8518l13.58545,0c0.77927,-0.00481 1.41421,0.73004 1.41421,1.6426l0,6.00363c-0.00824,0.90294 -0.63495,1.63298 -1.41009,1.6426l-13.58958,0c-0.77926,-0.00962 -1.40596,-0.73966 -1.4142,-1.6426l0,-6.00363c0,-0.43707 0.14842,-0.85972 0.4123,-1.16711c0.26388,-0.30259 0.62259,-0.47549 1.0019,-0.47549zm0,0"/>
   <path stroke="null" id="svg_29" fill="rgb(83.137255%,29.019608%,22.745098%)" fill-rule="evenodd" d="m35.51443,41.49539l12.75672,0c0.74215,0.0048 1.34412,0.70122 1.35236,1.56574l0,0.82611c-0.00824,-0.86453 -0.61021,-1.56094 -1.35236,-1.57056l-12.76084,0c-0.73803,0.00962 -1.32762,0.71084 -1.31938,1.57056l0,-0.82611c-0.00413,-0.85491 0.58548,-1.55614 1.31938,-1.56574l0.00412,0zm0,0"/>
   <path stroke="null" id="svg_30" fill="url(#linear14)" fill-rule="evenodd" d="m0.72001,0.14717l13.58958,0c0.77514,-0.00481 1.40184,0.71082 1.41009,1.60897l0,6.00364c0.00412,0.43226 -0.14018,0.85491 -0.40818,1.1671c-0.268,0.30739 -0.6267,0.4803 -1.0019,0.47549l-13.58958,0c-0.37107,0 -0.72978,-0.1681 -1.0019,-0.47549c-0.25975,-0.31218 -0.40818,-0.73484 -0.40818,-1.1719l0,-5.99883c0.00825,-0.89814 0.63907,-1.61378 1.41009,-1.60897zm0,0"/>
   <path stroke="null" id="svg_31" fill="rgb(83.137255%,29.019608%,22.745098%)" fill-rule="evenodd" d="m1.24363,0.79556l12.73198,0c0.74215,0 1.34412,0.70123 1.34824,1.56575l0,0.79248c-0.02061,-0.85491 -0.61433,-1.53693 -1.34824,-1.54173l-12.73198,0c-0.72977,0.0048 -1.32762,0.68681 -1.35236,1.54173l0,-0.79248c0.00825,-0.86452 0.61022,-1.56575 1.35236,-1.57535l0,0.0096zm0,0"/>
   <path stroke="null" id="svg_32" fill="url(#linear15)" fill-rule="evenodd" d="m17.84304,0.14717l13.55659,0c0.77101,-0.00481 1.40183,0.71082 1.41008,1.60897l0,6.00364c0,0.43226 -0.14842,0.85491 -0.4123,1.1671c-0.26388,0.30739 -0.62258,0.47549 -0.99778,0.47549l-13.55659,0c-0.77926,0 -1.41009,-0.73004 -1.41421,-1.63779l0,-6.00844c0.01237,-0.89334 0.63907,-1.60897 1.41009,-1.60897l0.00413,0zm0,0"/>
   <path stroke="null" id="svg_33" fill="rgb(83.137255%,29.019608%,22.745098%)" fill-rule="evenodd" d="m18.33368,0.79556l12.72786,0c0.73803,0.00481 1.32763,0.70603 1.3235,1.56575l0,0.79248c-0.00413,-0.85011 -0.59372,-1.53693 -1.31938,-1.54173l-12.73198,0c-0.72566,0.0048 -1.31525,0.69162 -1.31938,1.54173l0,-0.79248c-0.00413,-0.41305 0.13194,-0.8117 0.37933,-1.10467c0.24738,-0.29298 0.58547,-0.46108 0.94005,-0.46108zm0,0"/>
   <path stroke="null" id="svg_34" fill="url(#linear16)" fill-rule="evenodd" d="m35.02379,0.14717l13.58545,0c0.77101,-0.00481 1.40597,0.71082 1.41421,1.60897l0,6.00364c0,0.43226 -0.14844,0.85491 -0.41231,1.1671c-0.26388,0.30739 -0.6267,0.47549 -0.99778,0.47549l-13.58958,0c-0.37932,0 -0.73803,-0.1681 -1.0019,-0.47549c-0.26799,-0.30739 -0.4123,-0.73004 -0.4123,-1.1671l0,-6.00364c0.01237,-0.89814 0.64319,-1.61378 1.4142,-1.60897zm0,0"/>
   <path stroke="null" id="svg_35" fill="rgb(83.137255%,29.019608%,22.745098%)" fill-rule="evenodd" d="m35.51443,0.79556l12.75672,0c0.74215,0.00481 1.34412,0.70123 1.35236,1.56575l0,0.79248c-0.02061,-0.85491 -0.61846,-1.53693 -1.35236,-1.54173l-12.76084,0c-0.72566,0.0048 -1.31526,0.69162 -1.31938,1.54173l0,-0.79248c-0.00413,-0.41305 0.13194,-0.80689 0.37932,-1.10467c0.2515,-0.29298 0.58548,-0.46108 0.94006,-0.46108l0.00412,0zm0,0"/>
  </g>
 </g>
</svg>